<svg width="200" height="78" viewBox="0 0 100 78" fill="none" xmlns="http://www.w3.org/2000/svg">
<path fill-rule="evenodd" clip-rule="evenodd" d="M12.6822 62.0946H4.37318V52.6746H0V76.4562H4.37318V66.5729H12.6822V76.4562H17.0554V52.6746H12.6822V62.0946ZM31.9242 52.2114C28.7172 52.2114 25.9475 53.4468 23.6152 55.7631C21.4286 58.234 20.2624 61.168 20.2624 64.5654C20.2624 67.9628 21.4286 70.8969 23.6152 73.3677C25.8017 75.684 28.5714 76.9194 31.9242 76.9194C35.1312 76.9194 37.9009 75.684 40.2332 73.3677C42.5656 71.0513 43.586 68.1172 43.586 64.5654C43.586 61.0136 42.4198 58.234 40.2332 55.7631C37.9009 53.4468 35.1312 52.2114 31.9242 52.2114ZM37.0262 70.1247C35.5685 71.5145 33.965 72.2867 31.9242 72.2867C29.8834 72.2867 28.1341 71.5145 26.8222 70.1247C25.3644 68.7349 24.7813 66.7274 24.7813 64.5654C24.7813 62.249 25.5102 60.3959 26.8222 59.0061C28.2799 57.4618 29.8834 56.8441 31.9242 56.8441C33.965 56.8441 35.7143 57.6163 37.0262 59.0061C38.484 60.5503 39.0671 62.4034 39.0671 64.5654C39.2128 66.8818 38.484 68.7349 37.0262 70.1247ZM59.0379 68.2716C59.0379 69.507 58.7464 70.4336 58.0175 71.2057C57.2886 71.9778 56.2682 72.2867 54.8105 72.2867C53.3528 72.2867 52.3324 71.9778 51.6035 71.2057C50.8746 70.4336 50.5831 69.507 50.5831 68.2716V52.6746H46.2099V68.7349C46.2099 71.2057 46.9388 73.2132 48.5423 74.7575C50.1458 76.3017 52.1866 77.0739 54.6647 77.0739C57.1429 77.0739 59.1837 76.3017 60.7872 74.7575C62.3907 73.2132 63.1195 71.2057 63.1195 68.7349V52.6746H58.7464V68.2716H59.0379ZM82.5073 66.4185C82.2157 65.9552 81.9242 65.6464 81.4869 65.1831C81.0496 64.8743 80.6122 64.5654 80.3207 64.2565C80.0292 64.1021 79.5918 63.7933 78.863 63.4844C78.2799 63.1756 77.8426 63.0211 77.4053 62.8667C77.1137 62.7123 76.5306 62.5579 75.8018 62.4034C74.1982 61.7857 73.0321 61.3225 72.449 60.8592C71.8659 60.3959 71.5743 59.7782 71.5743 59.0061C71.5743 58.234 71.8659 57.7707 72.3032 57.3074C72.8863 56.8441 73.6152 56.6897 74.4898 56.6897C76.3848 56.6897 77.8426 57.7707 78.7172 59.7782L82.5073 57.4618C81.7784 55.7631 80.6123 54.5277 79.3003 53.6012C77.9883 52.6746 76.3848 52.2114 74.4898 52.2114C72.449 52.2114 70.6997 52.8291 69.242 54.0645C67.7843 55.2999 67.0554 56.9985 67.0554 59.1605C67.0554 60.2415 67.2012 61.168 67.6385 61.9402C67.93 62.7123 68.5131 63.4844 69.242 63.9477C69.9708 64.411 70.6997 64.8743 71.2828 65.1831C72.0117 65.492 72.8863 65.8008 73.7609 66.1097C75.5102 66.7274 76.8222 67.1906 77.551 67.6539C78.2799 68.1172 78.5714 68.7349 78.5714 69.6614C78.5714 70.4336 78.2799 71.0513 77.6968 71.5146C77.1137 71.9778 76.2391 72.2867 74.9271 72.2867C72.3032 72.2867 70.6997 71.0513 69.8251 68.5805L66.035 70.8968C66.6181 72.75 67.7843 74.1398 69.242 75.2208C70.6997 76.3017 72.5948 76.765 74.7813 76.765C77.2595 76.765 79.1545 76.1473 80.6123 74.7575C82.07 73.3677 82.9446 71.669 82.9446 69.507C82.9446 68.8893 82.7988 68.2716 82.6531 67.6539C82.7988 67.3451 82.6531 66.7274 82.5073 66.4185ZM90.379 71.9778V66.5729H98.9796V62.0946H90.5248V56.9985H99.8542V52.5202H86.1516V76.3017H100V71.8234H90.379V71.9778Z" fill="#252525"/>
<path d="M12.2322 44.4155C15.5428 43.3196 18.4929 41.3996 21.1153 38.6895C25.3084 34.2015 27.4049 28.6303 27.4049 21.8209C27.4049 15.1663 25.3084 9.59502 21.1153 4.95228C19.0922 2.71227 16.7903 1.08468 14.2431 0H32.3468V44.4155H12.2322Z" fill="#252525"/>
<path d="M62.2975 44.4155H78.4371L64.7682 0H61.998V10.5236H45.3754V15.7853H60.3507V27.8565H45.3754V33.1182H62.2975V44.4155Z" fill="#252525"/>
<path d="M79.0452 0L86.1084 28.3207L93.1715 0H79.0452Z" fill="#252525"/>
<path d="M99.8857 24.5746L93.7797 44.4155H99.8857V24.5746Z" fill="#252525"/>
<path d="M5.24138 32.3444C7.93695 32.3444 10.1833 31.4159 11.8305 29.404C13.4778 27.5469 14.3764 24.9161 14.3764 21.8209C14.3764 18.7257 13.4778 16.2496 11.8305 14.2378C10.0335 12.2259 7.93695 11.2974 5.24138 11.2974H0V32.3444H5.24138Z" fill="#252525"/>
</svg>
