<?xml version="1.0" ?>
<!-- Uploaded to: SVG Repo, www.svgrepo.com, Generator: SVG Repo Mixer Tools -->
<svg width="800px" height="800px" viewBox="0 0 512 512" id="svg2793" style="fill-rule:evenodd;clip-rule:evenodd;stroke-linejoin:round;stroke-miterlimit:2;" version="1.1" xml:space="preserve" xmlns="http://www.w3.org/2000/svg" xmlns:cc="http://creativecommons.org/ns#" xmlns:dc="http://purl.org/dc/elements/1.1/" xmlns:rdf="http://www.w3.org/1999/02/22-rdf-syntax-ns#" xmlns:serif="http://www.serif.com/" xmlns:svg="http://www.w3.org/2000/svg">
<defs id="defs2797"/>
<g id="_49-Pyramid-Chart" style="display:inline" transform="translate(-1024,-7168)">
<g id="g2006" transform="translate(1063.27,7586.67)">
<path d="M 0,63.33 31.666,0 h 370.127 l 31.665,63.33 z m 471.145,8.292 -46.665,-93.33 C 421.939,-26.79 416.746,-30 411.064,-30 H 22.395 c -5.682,0 -10.875,3.21 -13.416,8.292 l -46.667,93.33 c -2.324,4.649 -2.076,10.172 0.657,14.594 2.733,4.423 7.561,7.114 12.76,7.114 h 481.999 c 5.199,0 10.026,-2.691 12.76,-7.114 2.733,-4.422 2.981,-9.945 0.657,-14.594" id="path2004" style="fill-rule:nonzero"/>
</g>
<g id="g2010" transform="translate(1184.38,7485.37)">
<path d="M 0,-77.59 H 191.242 L 230.036,0 H -38.795 Z M -63.065,30 h 317.372 c 5.198,0 10.026,-2.692 12.759,-7.114 2.733,-4.422 2.982,-9.945 0.657,-14.594 l -53.794,-107.59 c -2.541,-5.082 -7.735,-8.292 -13.416,-8.292 H -9.271 c -5.681,0 -10.875,3.21 -13.416,8.292 L -76.482,8.292 c -2.325,4.649 -2.076,10.172 0.657,14.594 2.733,4.422 7.561,7.114 12.76,7.114" id="path2008" style="fill-rule:nonzero"/>
</g>
<g id="g2014" transform="translate(1280,7287.95)">
<path d="M 0,-71.406 44.973,18.542 H -44.972 Z M -69.242,48.542 H 69.243 c 5.199,0 10.027,-2.691 12.76,-7.114 2.733,-4.422 2.981,-9.944 0.657,-14.594 l -69.243,-138.49 c -2.542,-5.082 -7.735,-8.292 -13.417,-8.292 -5.682,0 -10.875,3.21 -13.417,8.292 l -69.242,138.49 c -2.324,4.65 -2.076,10.172 0.657,14.594 2.733,4.423 7.561,7.114 12.76,7.114" id="path2012" style="fill-rule:nonzero"/>
</g>
</g>
</svg>