<?xml version="1.0" encoding="utf-8"?>
<!-- Generator: Adobe Illustrator 22.0.1, SVG Export Plug-In . SVG Version: 6.00 Build 0)  -->
<svg version="1.1" id="Слой_1" xmlns="http://www.w3.org/2000/svg" xmlns:xlink="http://www.w3.org/1999/xlink" x="0px" y="0px"
	 viewBox="0 0 50.1 50.1" style="enable-background:new 0 0 50.1 50.1;" xml:space="preserve">
<style type="text/css">
	.st0{fill:url(#SVGID_1_);}
	.st1{fill:url(#SVGID_2_);}
	.st2{fill:url(#SVGID_3_);}
	.st3{fill:url(#SVGID_4_);}
	.st4{fill:url(#SVGID_5_);}
</style>
<g>
	<g>
		<g>
			<g>
				<g>
					<g>
						<linearGradient id="SVGID_1_" gradientUnits="userSpaceOnUse" x1="0" y1="25.053" x2="50.106" y2="25.053">
							<stop  offset="0" style="stop-color:#E6468C"/>
							<stop  offset="1" style="stop-color:#AC3AD0"/>
						</linearGradient>
						<path class="st0" d="M25.1,48.1C12.3,48.1,2,37.8,2,25.1S12.3,2,25.1,2c12.7,0,23.1,10.3,23.1,23.1
							C48.1,37.8,37.8,48.1,25.1,48.1z M42.8,7.3C38,2.6,31.7,0,25.1,0s-13,2.6-17.7,7.3S0,18.4,0,25.1s2.6,13,7.3,17.7
							s11,7.3,17.7,7.3s13-2.6,17.7-7.3c4.7-4.7,7.3-11,7.3-17.7S47.5,12.1,42.8,7.3z"/>
					</g>
				</g>
			</g>
			<g>
				<g>
					<g>
						<linearGradient id="SVGID_2_" gradientUnits="userSpaceOnUse" x1="41.085" y1="33.36" x2="45.9772" y2="33.36">
							<stop  offset="0" style="stop-color:#E6468C"/>
							<stop  offset="1" style="stop-color:#AC3AD0"/>
						</linearGradient>
						<path class="st1" d="M45.2,29.2c-0.5-0.1-1.1,0.2-1.2,0.7c0,0,0,0,0,0c-0.6,2.2-1.5,4.3-2.8,6.1c-0.3,0.5-0.2,1.1,0.3,1.4
							c0.5,0.3,1.1,0.2,1.4-0.3c1.4-2.1,2.4-4.3,3-6.7C46.1,29.9,45.8,29.3,45.2,29.2C45.2,29.2,45.2,29.2,45.2,29.2z"/>
					</g>
				</g>
			</g>
			<g>
				<g>
					<g>
						<linearGradient id="SVGID_3_" gradientUnits="userSpaceOnUse" x1="44.5954" y1="25.5081" x2="46.611" y2="25.5081">
							<stop  offset="0" style="stop-color:#E6468C"/>
							<stop  offset="1" style="stop-color:#AC3AD0"/>
						</linearGradient>
						<path class="st2" d="M45.6,24.1c-0.6,0-1,0.4-1,1c0,0,0,0,0,0c0,0.3,0,0.6,0,0.9c0,0.6,0.4,1,0.9,1.1c0.6,0,1-0.4,1.1-0.9
							c0,0,0,0,0,0c0-0.3,0-0.6,0-0.9C46.6,24.5,46.2,24.1,45.6,24.1z"/>
					</g>
				</g>
			</g>
			<g>
				<g>
					<g>
						<linearGradient id="SVGID_4_" gradientUnits="userSpaceOnUse" x1="21.559" y1="29.095" x2="28.546" y2="29.095">
							<stop  offset="0" style="stop-color:#E6468C"/>
							<stop  offset="1" style="stop-color:#AC3AD0"/>
						</linearGradient>
						<path class="st3" d="M26.5,37.8c0,0.8-0.7,1.5-1.5,1.5c-0.8,0-1.5-0.7-1.5-1.5V20.4c0-0.8,0.7-1.5,1.5-1.5
							c0.8,0,1.5,0.7,1.5,1.5L26.5,37.8z M25.1,16.9c-1.9,0-3.5,1.6-3.5,3.5v17.4c0,1.9,1.6,3.5,3.5,3.5c1.9,0,3.5-1.6,3.5-3.5V20.4
							C28.5,18.5,27,16.9,25.1,16.9L25.1,16.9z"/>
					</g>
				</g>
			</g>
			<g>
				<g>
					<g>
						<linearGradient id="SVGID_5_" gradientUnits="userSpaceOnUse" x1="21.559" y1="12.3265" x2="28.546" y2="12.3265">
							<stop  offset="0" style="stop-color:#E6468C"/>
							<stop  offset="1" style="stop-color:#AC3AD0"/>
						</linearGradient>
						<path class="st4" d="M26.1,13.4c-0.3,0.3-0.7,0.4-1.1,0.4s-0.8-0.2-1.1-0.4c-0.3-0.3-0.4-0.7-0.4-1.1c0-0.4,0.2-0.8,0.4-1.1
							c0.3-0.3,0.7-0.4,1.1-0.4s0.8,0.2,1.1,0.4c0.3,0.3,0.4,0.7,0.4,1.1C26.5,12.7,26.4,13.1,26.1,13.4z M27.5,9.9
							c-0.7-0.7-1.5-1-2.5-1c-0.9,0-1.8,0.4-2.5,1c-0.7,0.7-1,1.5-1,2.5c0,0.9,0.4,1.8,1,2.5c0.7,0.7,1.5,1,2.5,1
							c0.9,0,1.8-0.4,2.5-1c0.7-0.7,1-1.5,1-2.5C28.5,11.4,28.2,10.5,27.5,9.9L27.5,9.9z"/>
					</g>
				</g>
			</g>
		</g>
	</g>
</g>
</svg>
